ply
format ascii 1.0
comment Created by Blender 2.83.1 - www.blender.org, source file: ''
element vertex 128
property float x
property float y
property float z
property float nx
property float ny
property float nz
property float s
property float t
element face 33
property list uchar uint vertex_indices
end_header
-1.000000 1.000000 -0.000000 0.445488 0.890977 -0.087754 0.250000 0.490000
1.000000 0.000000 0.000000 0.445488 0.890977 -0.087754 0.250000 0.250000
-1.000000 0.980785 -0.195090 0.445488 0.890977 -0.087754 0.296822 0.485388
-1.000000 0.980785 -0.195090 0.445488 0.856737 -0.259888 0.296822 0.485388
1.000000 0.000000 0.000000 0.445488 0.856737 -0.259888 0.250000 0.250000
-1.000000 0.923880 -0.382684 0.445488 0.856737 -0.259888 0.341844 0.471731
-1.000000 0.923880 -0.382684 0.445488 0.789573 -0.422036 0.341844 0.471731
1.000000 0.000000 0.000000 0.445488 0.789573 -0.422036 0.250000 0.250000
-1.000000 0.831470 -0.555570 0.445488 0.789573 -0.422036 0.383337 0.449553
-1.000000 0.831470 -0.555570 0.445488 0.692067 -0.567965 0.383337 0.449553
1.000000 0.000000 0.000000 0.445488 0.692067 -0.567965 0.250000 0.250000
-1.000000 0.707107 -0.707107 0.445488 0.692067 -0.567965 0.419706 0.419706
-1.000000 0.707107 -0.707107 0.445488 0.567965 -0.692067 0.419706 0.419706
1.000000 0.000000 0.000000 0.445488 0.567965 -0.692067 0.250000 0.250000
-1.000000 0.555570 -0.831470 0.445488 0.567965 -0.692067 0.449553 0.383337
-1.000000 0.555570 -0.831470 0.445488 0.422036 -0.789573 0.449553 0.383337
1.000000 0.000000 0.000000 0.445488 0.422036 -0.789573 0.250000 0.250000
-1.000000 0.382683 -0.923880 0.445488 0.422036 -0.789573 0.471731 0.341844
-1.000000 0.382683 -0.923880 0.445488 0.259888 -0.856737 0.471731 0.341844
1.000000 0.000000 0.000000 0.445488 0.259888 -0.856737 0.250000 0.250000
-1.000000 0.195090 -0.980785 0.445488 0.259888 -0.856737 0.485388 0.296822
-1.000000 0.195090 -0.980785 0.445488 0.087754 -0.890977 0.485388 0.296822
1.000000 0.000000 0.000000 0.445488 0.087754 -0.890977 0.250000 0.250000
-1.000000 0.000000 -1.000000 0.445488 0.087754 -0.890977 0.490000 0.250000
-1.000000 0.000000 -1.000000 0.445488 -0.087754 -0.890977 0.490000 0.250000
1.000000 0.000000 0.000000 0.445488 -0.087754 -0.890977 0.250000 0.250000
-1.000000 -0.195090 -0.980785 0.445488 -0.087754 -0.890977 0.485388 0.203178
-1.000000 -0.195090 -0.980785 0.445488 -0.259888 -0.856737 0.485388 0.203178
1.000000 0.000000 0.000000 0.445488 -0.259888 -0.856737 0.250000 0.250000
-1.000000 -0.382683 -0.923880 0.445488 -0.259888 -0.856737 0.471731 0.158156
-1.000000 -0.382683 -0.923880 0.445488 -0.422035 -0.789573 0.471731 0.158156
1.000000 0.000000 0.000000 0.445488 -0.422035 -0.789573 0.250000 0.250000
-1.000000 -0.555570 -0.831470 0.445488 -0.422035 -0.789573 0.449553 0.116663
-1.000000 -0.555570 -0.831470 0.445488 -0.567965 -0.692067 0.449553 0.116663
1.000000 0.000000 0.000000 0.445488 -0.567965 -0.692067 0.250000 0.250000
-1.000000 -0.707107 -0.707107 0.445488 -0.567965 -0.692067 0.419706 0.080294
-1.000000 -0.707107 -0.707107 0.445488 -0.692067 -0.567965 0.419706 0.080294
1.000000 0.000000 0.000000 0.445488 -0.692067 -0.567965 0.250000 0.250000
-1.000000 -0.831470 -0.555570 0.445488 -0.692067 -0.567965 0.383337 0.050447
-1.000000 -0.831470 -0.555570 0.445488 -0.789573 -0.422036 0.383337 0.050447
1.000000 0.000000 0.000000 0.445488 -0.789573 -0.422036 0.250000 0.250000
-1.000000 -0.923880 -0.382683 0.445488 -0.789573 -0.422036 0.341844 0.028269
-1.000000 -0.923880 -0.382683 0.445488 -0.856737 -0.259888 0.341844 0.028269
1.000000 0.000000 0.000000 0.445488 -0.856737 -0.259888 0.250000 0.250000
-1.000000 -0.980785 -0.195090 0.445488 -0.856737 -0.259888 0.296822 0.014612
-1.000000 -0.980785 -0.195090 0.445488 -0.890977 -0.087753 0.296822 0.014612
1.000000 0.000000 0.000000 0.445488 -0.890977 -0.087753 0.250000 0.250000
-1.000000 -1.000000 0.000000 0.445488 -0.890977 -0.087753 0.250000 0.010000
-1.000000 -1.000000 0.000000 0.445488 -0.890977 0.087754 0.250000 0.010000
1.000000 0.000000 0.000000 0.445488 -0.890977 0.087754 0.250000 0.250000
-1.000000 -0.980785 0.195091 0.445488 -0.890977 0.087754 0.203178 0.014612
-1.000000 -0.980785 0.195091 0.445488 -0.856737 0.259889 0.203178 0.014612
1.000000 0.000000 0.000000 0.445488 -0.856737 0.259889 0.250000 0.250000
-1.000000 -0.923879 0.382684 0.445488 -0.856737 0.259889 0.158156 0.028269
-1.000000 -0.923879 0.382684 0.445488 -0.789573 0.422036 0.158156 0.028269
1.000000 0.000000 0.000000 0.445488 -0.789573 0.422036 0.250000 0.250000
-1.000000 -0.831469 0.555571 0.445488 -0.789573 0.422036 0.116663 0.050447
-1.000000 -0.831469 0.555571 0.445488 -0.692066 0.567965 0.116663 0.050447
1.000000 0.000000 0.000000 0.445488 -0.692066 0.567965 0.250000 0.250000
-1.000000 -0.707106 0.707107 0.445488 -0.692066 0.567965 0.080294 0.080294
-1.000000 -0.707106 0.707107 0.445488 -0.567964 0.692067 0.080294 0.080294
1.000000 0.000000 0.000000 0.445488 -0.567964 0.692067 0.250000 0.250000
-1.000000 -0.555570 0.831470 0.445488 -0.567964 0.692067 0.050447 0.116663
-1.000000 -0.555570 0.831470 0.445488 -0.422035 0.789574 0.050447 0.116663
1.000000 0.000000 0.000000 0.445488 -0.422035 0.789574 0.250000 0.250000
-1.000000 -0.382683 0.923880 0.445488 -0.422035 0.789574 0.028269 0.158156
-1.000000 -0.382683 0.923880 0.445488 -0.259887 0.856737 0.028269 0.158156
1.000000 0.000000 0.000000 0.445488 -0.259887 0.856737 0.250000 0.250000
-1.000000 -0.195089 0.980785 0.445488 -0.259887 0.856737 0.014611 0.203179
-1.000000 -0.195089 0.980785 0.445488 -0.087753 0.890977 0.014611 0.203179
1.000000 0.000000 0.000000 0.445488 -0.087753 0.890977 0.250000 0.250000
-1.000000 0.000001 1.000000 0.445488 -0.087753 0.890977 0.010000 0.250000
-1.000000 0.000001 1.000000 0.445488 0.087754 0.890977 0.010000 0.250000
1.000000 0.000000 0.000000 0.445488 0.087754 0.890977 0.250000 0.250000
-1.000000 0.195091 0.980785 0.445488 0.087754 0.890977 0.014612 0.296822
-1.000000 0.195091 0.980785 0.445488 0.259889 0.856737 0.014612 0.296822
1.000000 0.000000 0.000000 0.445488 0.259889 0.856737 0.250000 0.250000
-1.000000 0.382684 0.923879 0.445488 0.259889 0.856737 0.028269 0.341844
-1.000000 0.382684 0.923879 0.445488 0.422037 0.789573 0.028269 0.341844
1.000000 0.000000 0.000000 0.445488 0.422037 0.789573 0.250000 0.250000
-1.000000 0.555571 0.831469 0.445488 0.422037 0.789573 0.050447 0.383337
-1.000000 0.555571 0.831469 0.445488 0.567966 0.692066 0.050447 0.383337
1.000000 0.000000 0.000000 0.445488 0.567966 0.692066 0.250000 0.250000
-1.000000 0.707108 0.707106 0.445488 0.567966 0.692066 0.080295 0.419706
-1.000000 0.707108 0.707106 0.445488 0.692067 0.567964 0.080295 0.419706
1.000000 0.000000 0.000000 0.445488 0.692067 0.567964 0.250000 0.250000
-1.000000 0.831470 0.555569 0.445488 0.692067 0.567964 0.116663 0.449553
-1.000000 0.831470 0.555569 0.445488 0.789574 0.422034 0.116663 0.449553
1.000000 0.000000 0.000000 0.445488 0.789574 0.422034 0.250000 0.250000
-1.000000 0.923880 0.382682 0.445488 0.789574 0.422034 0.158156 0.471731
-1.000000 0.923880 0.382682 0.445488 0.856737 0.259887 0.158156 0.471731
1.000000 0.000000 0.000000 0.445488 0.856737 0.259887 0.250000 0.250000
-1.000000 0.980786 0.195089 0.445488 0.856737 0.259887 0.203179 0.485389
-1.000000 0.980786 0.195089 0.445488 0.890977 0.087753 0.203179 0.485389
1.000000 0.000000 0.000000 0.445488 0.890977 0.087753 0.250000 0.250000
-1.000000 1.000000 -0.000000 0.445488 0.890977 0.087753 0.250000 0.490000
-1.000000 1.000000 -0.000000 -1.000000 0.000000 -0.000000 0.750000 0.490000
-1.000000 0.980785 -0.195090 -1.000000 0.000000 -0.000000 0.796822 0.485388
-1.000000 0.923880 -0.382684 -1.000000 0.000000 -0.000000 0.841844 0.471731
-1.000000 0.831470 -0.555570 -1.000000 0.000000 -0.000000 0.883337 0.449553
-1.000000 0.707107 -0.707107 -1.000000 0.000000 -0.000000 0.919706 0.419706
-1.000000 0.555570 -0.831470 -1.000000 0.000000 -0.000000 0.949553 0.383337
-1.000000 0.382683 -0.923880 -1.000000 0.000000 -0.000000 0.971731 0.341844
-1.000000 0.195090 -0.980785 -1.000000 0.000000 -0.000000 0.985388 0.296822
-1.000000 0.000000 -1.000000 -1.000000 0.000000 -0.000000 0.990000 0.250000
-1.000000 -0.195090 -0.980785 -1.000000 0.000000 -0.000000 0.985388 0.203178
-1.000000 -0.382683 -0.923880 -1.000000 0.000000 -0.000000 0.971731 0.158156
-1.000000 -0.555570 -0.831470 -1.000000 0.000000 -0.000000 0.949553 0.116663
-1.000000 -0.707107 -0.707107 -1.000000 0.000000 -0.000000 0.919706 0.080294
-1.000000 -0.831470 -0.555570 -1.000000 0.000000 -0.000000 0.883337 0.050447
-1.000000 -0.923880 -0.382683 -1.000000 0.000000 -0.000000 0.841844 0.028269
-1.000000 -0.980785 -0.195090 -1.000000 0.000000 -0.000000 0.796822 0.014612
-1.000000 -1.000000 0.000000 -1.000000 0.000000 -0.000000 0.750000 0.010000
-1.000000 -0.980785 0.195091 -1.000000 0.000000 -0.000000 0.703178 0.014612
-1.000000 -0.923879 0.382684 -1.000000 0.000000 -0.000000 0.658156 0.028269
-1.000000 -0.831469 0.555571 -1.000000 0.000000 -0.000000 0.616663 0.050447
-1.000000 -0.707106 0.707107 -1.000000 0.000000 -0.000000 0.580294 0.080294
-1.000000 -0.555570 0.831470 -1.000000 0.000000 -0.000000 0.550447 0.116663
-1.000000 -0.382683 0.923880 -1.000000 0.000000 -0.000000 0.528269 0.158156
-1.000000 -0.195089 0.980785 -1.000000 0.000000 -0.000000 0.514611 0.203179
-1.000000 0.000001 1.000000 -1.000000 0.000000 -0.000000 0.510000 0.250000
-1.000000 0.195091 0.980785 -1.000000 0.000000 -0.000000 0.514612 0.296822
-1.000000 0.382684 0.923879 -1.000000 0.000000 -0.000000 0.528269 0.341844
-1.000000 0.555571 0.831469 -1.000000 0.000000 -0.000000 0.550447 0.383337
-1.000000 0.707108 0.707106 -1.000000 0.000000 -0.000000 0.580295 0.419706
-1.000000 0.831470 0.555569 -1.000000 0.000000 -0.000000 0.616663 0.449553
-1.000000 0.923880 0.382682 -1.000000 0.000000 -0.000000 0.658156 0.471731
-1.000000 0.980786 0.195089 -1.000000 0.000000 -0.000000 0.703179 0.485389
3 0 1 2
3 3 4 5
3 6 7 8
3 9 10 11
3 12 13 14
3 15 16 17
3 18 19 20
3 21 22 23
3 24 25 26
3 27 28 29
3 30 31 32
3 33 34 35
3 36 37 38
3 39 40 41
3 42 43 44
3 45 46 47
3 48 49 50
3 51 52 53
3 54 55 56
3 57 58 59
3 60 61 62
3 63 64 65
3 66 67 68
3 69 70 71
3 72 73 74
3 75 76 77
3 78 79 80
3 81 82 83
3 84 85 86
3 87 88 89
3 90 91 92
3 93 94 95
32 96 97 98 99 100 101 102 103 104 105 106 107 108 109 110 111 112 113 114 115 116 117 118 119 120 121 122 123 124 125 126 127
