ply
format ascii 1.0
comment Created by Blender 2.83.1 - www.blender.org, source file: ''
element vertex 32
property float x
property float y
property float z
element face 24
property list uchar uint vertex_indices
end_header
2.166931 3.058375 0.494567
0.527297 3.058375 1.639819
0.527297 1.058375 1.639819
2.166931 1.058375 0.494567
1.021679 1.058375 -1.145066
-0.617955 1.058375 0.000185
-0.617955 3.058375 0.000185
1.021679 3.058375 -1.145066
-0.525507 -1.440181 2.586900
-2.435741 -1.683610 3.127037
-2.435741 -3.506988 2.305275
-0.525507 -3.263559 1.765139
-1.117964 -2.478681 0.023599
-3.028198 -2.722110 0.563736
-3.028198 -0.898732 1.385497
-1.117964 -0.655303 0.845360
1.673743 -0.150700 -2.014126
0.282915 -0.555841 -0.635192
1.063886 -2.379756 -0.383365
2.454714 -1.974615 -1.762299
1.248197 -2.688193 -3.188876
-0.142631 -3.093334 -1.809942
-0.923602 -1.269419 -2.061769
0.467225 -0.864278 -3.440703
-0.263864 2.987398 3.640857
-1.865688 2.153230 4.500115
-1.232861 0.345342 3.924728
0.368963 1.179510 3.065470
-0.647743 1.368463 1.353569
-2.249567 0.534295 2.212827
-2.882394 2.342184 2.788214
-1.280570 3.176352 1.928956
4 0 1 2 3
4 4 3 2 5
4 5 2 1 6
4 6 7 4 5
4 7 0 3 4
4 6 1 0 7
4 8 9 10 11
4 12 11 10 13
4 13 10 9 14
4 14 15 12 13
4 15 8 11 12
4 14 9 8 15
4 16 17 18 19
4 20 19 18 21
4 21 18 17 22
4 22 23 20 21
4 23 16 19 20
4 22 17 16 23
4 24 25 26 27
4 28 27 26 29
4 29 26 25 30
4 30 31 28 29
4 31 24 27 28
4 30 25 24 31
