ply
format ascii 1.0
comment Created by Blender 2.83.1 - www.blender.org, source file: ''
element vertex 416
property float x
property float y
property float z
element face 308
property list uchar uint vertex_indices
end_header
0.690808 0.690138 0.227050
0.776936 0.687446 0.227050
0.718502 0.691016 0.227050
0.662687 0.687497 0.227050
0.634077 0.683078 0.227050
0.829111 0.676960 0.227050
0.604917 0.676868 0.227050
0.874833 0.659891 0.227050
0.575145 0.668851 0.227050
0.544702 0.659016 0.227050
0.913909 0.636571 0.227050
0.513525 0.647347 0.227050
0.481554 0.633831 0.227050
0.946147 0.607335 0.227050
0.448727 0.618453 0.227050
0.414983 0.601201 0.227050
0.971352 0.572516 0.227050
0.380262 0.582060 0.227050
0.344502 0.561016 0.227050
0.989332 0.532446 0.227050
0.246102 0.315016 0.227050
0.286610 0.348046 0.227050
0.325202 0.377256 0.227050
0.361977 0.402828 0.227050
0.397035 0.424942 0.227050
0.430477 0.443777 0.227050
0.462402 0.459516 0.227050
0.492910 0.472338 0.227050
0.522102 0.482423 0.227050
0.550077 0.489953 0.227050
0.576935 0.495108 0.227050
0.602777 0.498069 0.227050
0.627702 0.499016 0.227050
0.999895 0.487460 0.227050
0.659586 0.496843 0.227050
0.688144 0.490469 0.227050
0.713233 0.480110 0.227050
1.002846 0.437891 0.227050
0.734709 0.465979 0.227050
0.752430 0.448292 0.227050
0.766252 0.427266 0.227050
0.997993 0.384071 0.227050
0.776032 0.403114 0.227050
0.781628 0.376053 0.227050
0.985142 0.326335 0.227050
0.782896 0.346297 0.227050
0.779693 0.314062 0.227050
0.964102 0.265016 0.227050
0.771876 0.279563 0.227050
0.759302 0.243016 0.227050
0.939616 0.210143 0.227050
0.747598 0.215423 0.227050
0.735206 0.189442 0.227050
0.910213 0.156034 0.227050
0.722002 0.164766 0.227050
0.707865 0.141090 0.227050
0.875377 0.101953 0.227050
0.692672 0.118108 0.227050
0.676302 0.095516 0.227050
0.834591 0.047164 0.227050
0.658632 0.073006 0.227050
0.639539 0.050275 0.227050
0.618902 0.027016 0.227050
0.787338 -0.009070 0.227050
0.596598 0.002923 0.227050
0.572506 -0.022308 0.227050
0.733102 -0.067484 0.227050
0.546502 -0.048984 0.227050
0.495482 -0.099459 0.227050
0.671366 -0.128815 0.227050
0.440478 -0.151614 0.227050
0.601613 -0.193799 0.227050
0.382171 -0.205047 0.227050
0.523327 -0.263172 0.227050
0.321243 -0.259355 0.227050
0.258376 -0.314135 0.227050
0.435991 -0.337669 0.227050
0.194252 -0.368984 0.227050
0.339088 -0.418028 0.227050
0.129553 -0.423501 0.227050
0.232102 -0.504984 0.227050
0.064961 -0.477281 0.227050
0.001158 -0.529922 0.227050
0.754102 -0.504984 0.227050
0.679702 -0.690984 0.227050
-0.061174 -0.581021 0.227050
-0.121353 -0.630177 0.227050
-0.178698 -0.676984 0.227050
-0.184298 -0.690984 0.227050
-1.015098 -0.152984 0.227050
0.096502 0.691016 0.227050
0.012502 0.691016 0.227050
-0.251498 0.321016 0.227050
-0.247498 0.321016 0.227050
-0.206698 -0.066984 0.227050
-0.718698 -0.066984 0.227050
-0.402698 -0.066984 0.227050
-0.060698 -0.066984 0.227050
-0.131098 -0.242984 0.227050
-1.051098 -0.242984 0.227050
-0.473098 -0.242984 0.227050
-0.652298 -0.690984 0.227050
-0.277098 -0.242984 0.227050
-0.456298 -0.690984 0.227050
0.776936 0.687446 -0.252950
0.690808 0.690138 -0.252950
0.718502 0.691016 -0.252950
0.662687 0.687497 -0.252950
0.634077 0.683078 -0.252950
0.829111 0.676960 -0.252950
0.604917 0.676868 -0.252950
0.874833 0.659891 -0.252950
0.575145 0.668851 -0.252950
0.544702 0.659016 -0.252950
0.913909 0.636571 -0.252950
0.513525 0.647347 -0.252950
0.481554 0.633831 -0.252950
0.946147 0.607335 -0.252950
0.448727 0.618453 -0.252950
0.414983 0.601201 -0.252950
0.971352 0.572516 -0.252950
0.380262 0.582060 -0.252950
0.344502 0.561016 -0.252950
0.989332 0.532446 -0.252950
0.286610 0.348046 -0.252950
0.246102 0.315016 -0.252950
0.325202 0.377256 -0.252950
0.361977 0.402828 -0.252950
0.397035 0.424942 -0.252950
0.430477 0.443777 -0.252950
0.462402 0.459516 -0.252950
0.492910 0.472338 -0.252950
0.522102 0.482423 -0.252950
0.550077 0.489953 -0.252950
0.576935 0.495108 -0.252950
0.602777 0.498069 -0.252950
0.627702 0.499016 -0.252950
0.999895 0.487460 -0.252950
0.659586 0.496843 -0.252950
0.688144 0.490469 -0.252950
0.713233 0.480110 -0.252950
1.002846 0.437891 -0.252950
0.734709 0.465979 -0.252950
0.752430 0.448292 -0.252950
0.766252 0.427266 -0.252950
0.997993 0.384071 -0.252950
0.776032 0.403114 -0.252950
0.781628 0.376053 -0.252950
0.985142 0.326335 -0.252950
0.782896 0.346297 -0.252950
0.779693 0.314062 -0.252950
0.964102 0.265016 -0.252950
0.771876 0.279563 -0.252950
0.759302 0.243016 -0.252950
0.939616 0.210143 -0.252950
0.747598 0.215423 -0.252950
0.735206 0.189442 -0.252950
0.910213 0.156034 -0.252950
0.722002 0.164766 -0.252950
0.707865 0.141090 -0.252950
0.875377 0.101953 -0.252950
0.692672 0.118108 -0.252950
0.676302 0.095516 -0.252950
0.834591 0.047164 -0.252950
0.658632 0.073006 -0.252950
0.639539 0.050275 -0.252950
0.618902 0.027016 -0.252950
0.787338 -0.009070 -0.252950
0.596598 0.002923 -0.252950
0.572506 -0.022308 -0.252950
0.733102 -0.067484 -0.252950
0.546502 -0.048984 -0.252950
0.495482 -0.099459 -0.252950
0.671366 -0.128815 -0.252950
0.440478 -0.151614 -0.252950
0.601613 -0.193799 -0.252950
0.382171 -0.205047 -0.252950
0.523327 -0.263172 -0.252950
0.321243 -0.259355 -0.252950
0.258376 -0.314135 -0.252950
0.435991 -0.337669 -0.252950
0.194252 -0.368984 -0.252950
0.339088 -0.418028 -0.252950
0.129553 -0.423501 -0.252950
0.232102 -0.504984 -0.252950
0.064961 -0.477281 -0.252950
0.001158 -0.529922 -0.252950
0.754102 -0.504984 -0.252950
0.679702 -0.690984 -0.252950
-0.061174 -0.581021 -0.252950
-0.121353 -0.630177 -0.252950
-0.178698 -0.676984 -0.252950
-0.184298 -0.690984 -0.252950
0.096502 0.691016 -0.252950
-1.015098 -0.152984 -0.252950
0.012502 0.691016 -0.252950
-0.251498 0.321016 -0.252950
-0.247498 0.321016 -0.252950
-0.206698 -0.066984 -0.252950
-0.718698 -0.066984 -0.252950
-0.402698 -0.066984 -0.252950
-0.060698 -0.066984 -0.252950
-0.131098 -0.242984 -0.252950
-1.051098 -0.242984 -0.252950
-0.473098 -0.242984 -0.252950
-0.277098 -0.242984 -0.252950
-0.652298 -0.690984 -0.252950
-0.456298 -0.690984 -0.252950
-0.060698 -0.066984 0.227050
-0.131098 -0.242984 0.227050
-0.131098 -0.242984 -0.252950
-0.060698 -0.066984 -0.252950
-0.277098 -0.242984 0.227050
-0.277098 -0.242984 -0.252950
-0.456298 -0.690984 0.227050
-0.456298 -0.690984 -0.252950
-0.652298 -0.690984 0.227050
-0.652298 -0.690984 -0.252950
-0.473098 -0.242984 0.227050
-0.473098 -0.242984 -0.252950
-1.051098 -0.242984 0.227050
-1.051098 -0.242984 -0.252950
-1.015098 -0.152984 0.227050
-1.015098 -0.152984 -0.252950
0.012502 0.691016 0.227050
0.012502 0.691016 -0.252950
0.096502 0.691016 0.227050
0.096502 0.691016 -0.252950
-0.206698 -0.066984 0.227050
-0.206698 -0.066984 -0.252950
-0.402698 -0.066984 0.227050
-0.247498 0.321016 0.227050
-0.247498 0.321016 -0.252950
-0.402698 -0.066984 -0.252950
-0.251498 0.321016 0.227050
-0.251498 0.321016 -0.252950
-0.718698 -0.066984 0.227050
-0.718698 -0.066984 -0.252950
-0.184298 -0.690984 0.227050
-0.178698 -0.676984 0.227050
-0.178698 -0.676984 -0.252950
-0.184298 -0.690984 -0.252950
-0.121353 -0.630177 0.227050
-0.121353 -0.630177 -0.252950
-0.061174 -0.581021 0.227050
-0.061174 -0.581021 -0.252950
0.001158 -0.529922 0.227050
0.001158 -0.529922 -0.252950
0.064961 -0.477281 0.227050
0.064961 -0.477281 -0.252950
0.129553 -0.423501 0.227050
0.129553 -0.423501 -0.252950
0.194252 -0.368984 0.227050
0.194252 -0.368984 -0.252950
0.258376 -0.314135 0.227050
0.258376 -0.314135 -0.252950
0.321243 -0.259355 0.227050
0.321243 -0.259355 -0.252950
0.382171 -0.205047 0.227050
0.382171 -0.205047 -0.252950
0.440478 -0.151614 0.227050
0.440478 -0.151614 -0.252950
0.495482 -0.099459 0.227050
0.495482 -0.099459 -0.252950
0.546502 -0.048984 0.227050
0.546502 -0.048984 -0.252950
0.572506 -0.022308 0.227050
0.572506 -0.022308 -0.252950
0.596598 0.002923 0.227050
0.596598 0.002923 -0.252950
0.618902 0.027016 0.227050
0.618902 0.027016 -0.252950
0.639539 0.050275 0.227050
0.639539 0.050275 -0.252950
0.658632 0.073006 0.227050
0.658632 0.073006 -0.252950
0.676302 0.095516 0.227050
0.676302 0.095516 -0.252950
0.692672 0.118108 0.227050
0.692672 0.118108 -0.252950
0.707865 0.141090 0.227050
0.707865 0.141090 -0.252950
0.722002 0.164766 0.227050
0.722002 0.164766 -0.252950
0.735206 0.189442 0.227050
0.735206 0.189442 -0.252950
0.747598 0.215423 0.227050
0.747598 0.215423 -0.252950
0.759302 0.243016 0.227050
0.759302 0.243016 -0.252950
0.771876 0.279563 0.227050
0.771876 0.279563 -0.252950
0.779693 0.314062 0.227050
0.779693 0.314062 -0.252950
0.782896 0.346297 0.227050
0.782896 0.346297 -0.252950
0.781628 0.376053 0.227050
0.781628 0.376053 -0.252950
0.776032 0.403114 0.227050
0.776032 0.403114 -0.252950
0.766252 0.427266 0.227050
0.766252 0.427266 -0.252950
0.752430 0.448292 0.227050
0.752430 0.448292 -0.252950
0.734709 0.465979 0.227050
0.734709 0.465979 -0.252950
0.713233 0.480110 0.227050
0.713233 0.480110 -0.252950
0.688144 0.490469 0.227050
0.688144 0.490469 -0.252950
0.659586 0.496843 0.227050
0.659586 0.496843 -0.252950
0.627702 0.499016 0.227050
0.627702 0.499016 -0.252950
0.602777 0.498069 0.227050
0.602777 0.498069 -0.252950
0.576935 0.495108 0.227050
0.576935 0.495108 -0.252950
0.550077 0.489953 0.227050
0.550077 0.489953 -0.252950
0.522102 0.482423 0.227050
0.522102 0.482423 -0.252950
0.492910 0.472338 0.227050
0.492910 0.472338 -0.252950
0.462402 0.459516 0.227050
0.462402 0.459516 -0.252950
0.430477 0.443777 0.227050
0.430477 0.443777 -0.252950
0.397035 0.424942 0.227050
0.397035 0.424942 -0.252950
0.361977 0.402828 0.227050
0.361977 0.402828 -0.252950
0.325202 0.377256 0.227050
0.325202 0.377256 -0.252950
0.286610 0.348046 0.227050
0.286610 0.348046 -0.252950
0.246102 0.315016 0.227050
0.246102 0.315016 -0.252950
0.344502 0.561016 0.227050
0.344502 0.561016 -0.252950
0.380262 0.582060 0.227050
0.380262 0.582060 -0.252950
0.414983 0.601201 0.227050
0.414983 0.601201 -0.252950
0.448727 0.618453 0.227050
0.448727 0.618453 -0.252950
0.481554 0.633831 0.227050
0.481554 0.633831 -0.252950
0.513525 0.647347 0.227050
0.513525 0.647347 -0.252950
0.544702 0.659016 0.227050
0.544702 0.659016 -0.252950
0.575145 0.668851 0.227050
0.575145 0.668851 -0.252950
0.604917 0.676868 0.227050
0.604917 0.676868 -0.252950
0.634077 0.683078 0.227050
0.634077 0.683078 -0.252950
0.662687 0.687497 0.227050
0.662687 0.687497 -0.252950
0.690808 0.690138 0.227050
0.690808 0.690138 -0.252950
0.718502 0.691016 0.227050
0.718502 0.691016 -0.252950
0.776936 0.687446 0.227050
0.776936 0.687446 -0.252950
0.829111 0.676960 0.227050
0.829111 0.676960 -0.252950
0.874833 0.659891 0.227050
0.874833 0.659891 -0.252950
0.913909 0.636571 0.227050
0.913909 0.636571 -0.252950
0.946147 0.607335 0.227050
0.946147 0.607335 -0.252950
0.971352 0.572516 0.227050
0.971352 0.572516 -0.252950
0.989332 0.532446 0.227050
0.989332 0.532446 -0.252950
0.999895 0.487460 0.227050
0.999895 0.487460 -0.252950
1.002846 0.437891 0.227050
1.002846 0.437891 -0.252950
0.997993 0.384071 0.227050
0.997993 0.384071 -0.252950
0.985142 0.326335 0.227050
0.985142 0.326335 -0.252950
0.964102 0.265016 0.227050
0.964102 0.265016 -0.252950
0.939616 0.210143 0.227050
0.939616 0.210143 -0.252950
0.910213 0.156034 0.227050
0.910213 0.156034 -0.252950
0.875377 0.101953 0.227050
0.875377 0.101953 -0.252950
0.834591 0.047164 0.227050
0.834591 0.047164 -0.252950
0.787338 -0.009070 0.227050
0.787338 -0.009070 -0.252950
0.733102 -0.067484 0.227050
0.733102 -0.067484 -0.252950
0.671366 -0.128815 0.227050
0.671366 -0.128815 -0.252950
0.601613 -0.193799 0.227050
0.601613 -0.193799 -0.252950
0.523327 -0.263172 0.227050
0.523327 -0.263172 -0.252950
0.435991 -0.337669 0.227050
0.435991 -0.337669 -0.252950
0.339088 -0.418028 0.227050
0.339088 -0.418028 -0.252950
0.232102 -0.504984 0.227050
0.232102 -0.504984 -0.252950
0.754102 -0.504984 0.227050
0.754102 -0.504984 -0.252950
0.679702 -0.690984 0.227050
0.679702 -0.690984 -0.252950
3 0 1 2
3 3 1 0
3 4 1 3
3 4 5 1
3 6 5 4
3 6 7 5
3 8 7 6
3 9 7 8
3 9 10 7
3 11 10 9
3 12 10 11
3 12 13 10
3 14 13 12
3 15 13 14
3 15 16 13
3 17 16 15
3 18 16 17
3 18 19 16
3 20 21 18
3 21 22 18
3 22 23 18
3 23 24 18
3 24 25 18
3 25 26 18
3 26 27 18
3 27 28 18
3 28 29 18
3 29 30 18
3 30 31 18
3 31 19 18
3 31 32 19
3 32 33 19
3 34 33 32
3 35 33 34
3 36 33 35
3 36 37 33
3 38 37 36
3 39 37 38
3 40 37 39
3 40 41 37
3 42 41 40
3 43 41 42
3 43 44 41
3 45 44 43
3 46 44 45
3 46 47 44
3 48 47 46
3 49 47 48
3 49 50 47
3 51 50 49
3 52 50 51
3 52 53 50
3 54 53 52
3 55 53 54
3 55 56 53
3 57 56 55
3 58 56 57
3 58 59 56
3 60 59 58
3 61 59 60
3 62 59 61
3 62 63 59
3 64 63 62
3 65 63 64
3 65 66 63
3 67 66 65
3 68 66 67
3 68 69 66
3 70 69 68
3 70 71 69
3 72 71 70
3 72 73 71
3 74 73 72
3 75 73 74
3 75 76 73
3 77 76 75
3 77 78 76
3 79 78 77
3 79 80 78
3 81 80 79
3 82 80 81
3 82 83 80
3 82 84 83
3 85 84 82
3 86 84 85
3 87 84 86
3 88 84 87
3 89 90 91
3 89 92 90
3 92 93 90
3 93 94 90
3 89 95 92
3 96 94 93
3 89 96 95
3 89 94 96
3 89 97 94
3 89 98 97
3 99 98 89
3 100 98 99
3 101 102 100
3 102 98 100
3 101 103 102
3 104 105 106
3 104 107 105
3 104 108 107
3 109 108 104
3 109 110 108
3 111 110 109
3 111 112 110
3 111 113 112
3 114 113 111
3 114 115 113
3 114 116 115
3 117 116 114
3 117 118 116
3 117 119 118
3 120 119 117
3 120 121 119
3 120 122 121
3 123 122 120
3 124 125 122
3 126 124 122
3 127 126 122
3 128 127 122
3 129 128 122
3 130 129 122
3 131 130 122
3 132 131 122
3 133 132 122
3 134 133 122
3 135 134 122
3 123 135 122
3 136 135 123
3 137 136 123
3 137 138 136
3 137 139 138
3 137 140 139
3 141 140 137
3 141 142 140
3 141 143 142
3 141 144 143
3 145 144 141
3 145 146 144
3 145 147 146
3 148 147 145
3 148 149 147
3 148 150 149
3 151 150 148
3 151 152 150
3 151 153 152
3 154 153 151
3 154 155 153
3 154 156 155
3 157 156 154
3 157 158 156
3 157 159 158
3 160 159 157
3 160 161 159
3 160 162 161
3 163 162 160
3 163 164 162
3 163 165 164
3 163 166 165
3 167 166 163
3 167 168 166
3 167 169 168
3 170 169 167
3 170 171 169
3 170 172 171
3 173 172 170
3 173 174 172
3 175 174 173
3 175 176 174
3 177 176 175
3 177 178 176
3 177 179 178
3 180 179 177
3 180 181 179
3 182 181 180
3 182 183 181
3 184 183 182
3 184 185 183
3 184 186 185
3 187 186 184
3 188 186 187
3 188 189 186
3 188 190 189
3 188 191 190
3 188 192 191
3 193 194 195
3 196 194 193
3 197 196 193
3 198 197 193
3 199 194 196
3 198 200 197
3 200 194 199
3 198 194 200
3 201 194 198
3 202 194 201
3 202 203 194
3 202 204 203
3 205 206 204
3 202 205 204
3 207 206 205
4 208 209 210 211
4 209 212 213 210
4 212 214 215 213
4 214 216 217 215
4 216 218 219 217
4 218 220 221 219
4 220 222 223 221
4 222 224 225 223
4 224 226 227 225
4 226 228 229 227
4 228 208 211 229
4 230 231 232 233
4 231 234 235 232
4 234 236 237 235
4 236 230 233 237
4 238 239 240 241
4 239 242 243 240
4 242 244 245 243
4 244 246 247 245
4 246 248 249 247
4 248 250 251 249
4 250 252 253 251
4 252 254 255 253
4 254 256 257 255
4 256 258 259 257
4 258 260 261 259
4 260 262 263 261
4 262 264 265 263
4 264 266 267 265
4 266 268 269 267
4 268 270 271 269
4 270 272 273 271
4 272 274 275 273
4 274 276 277 275
4 276 278 279 277
4 278 280 281 279
4 280 282 283 281
4 282 284 285 283
4 284 286 287 285
4 286 288 289 287
4 288 290 291 289
4 290 292 293 291
4 292 294 295 293
4 294 296 297 295
4 296 298 299 297
4 298 300 301 299
4 300 302 303 301
4 302 304 305 303
4 304 306 307 305
4 306 308 309 307
4 308 310 311 309
4 310 312 313 311
4 312 314 315 313
4 314 316 317 315
4 316 318 319 317
4 318 320 321 319
4 320 322 323 321
4 322 324 325 323
4 324 326 327 325
4 326 328 329 327
4 328 330 331 329
4 330 332 333 331
4 332 334 335 333
4 334 336 337 335
4 336 338 339 337
4 338 340 341 339
4 340 342 343 341
4 342 344 345 343
4 344 346 347 345
4 346 348 349 347
4 348 350 351 349
4 350 352 353 351
4 352 354 355 353
4 354 356 357 355
4 356 358 359 357
4 358 360 361 359
4 360 362 363 361
4 362 364 365 363
4 364 366 367 365
4 366 368 369 367
4 368 370 371 369
4 370 372 373 371
4 372 374 375 373
4 374 376 377 375
4 376 378 379 377
4 378 380 381 379
4 380 382 383 381
4 382 384 385 383
4 384 386 387 385
4 386 388 389 387
4 388 390 391 389
4 390 392 393 391
4 392 394 395 393
4 394 396 397 395
4 396 398 399 397
4 398 400 401 399
4 400 402 403 401
4 402 404 405 403
4 404 406 407 405
4 406 408 409 407
4 408 410 411 409
4 410 412 413 411
4 412 414 415 413
4 414 238 241 415
