ply
format ascii 1.0
comment Created by Blender 2.83.1 - www.blender.org, source file: ''
element vertex 924
property float x
property float y
property float z
element face 689
property list uchar uint vertex_indices
end_header
1.342352 -0.060323 -0.414018
0.996195 1.008775 0.363362
0.817968 1.000485 0.445597
1.019455 1.231095 0.478552
1.072324 1.287547 0.484888
1.123583 1.334103 0.486378
1.173137 1.370757 0.483064
1.220889 1.397500 0.474989
1.266743 1.414325 0.462194
1.310604 1.421224 0.444722
1.352376 1.418190 0.422615
1.102171 1.130070 0.380696
1.133452 1.163141 0.384258
1.391964 1.405215 0.395916
1.210891 0.574453 0.011414
1.163809 1.189779 0.384608
1.193197 1.210058 0.381813
1.221572 1.224056 0.375937
1.248888 1.231848 0.367045
1.429271 1.382291 0.364667
1.275102 1.233511 0.355202
1.300169 1.229121 0.340474
1.464201 1.349410 0.328911
1.324042 1.218755 0.322926
1.346679 1.202487 0.302623
1.496660 1.306565 0.288689
1.368033 1.180395 0.279631
1.388061 1.152554 0.254013
1.526550 1.253748 0.244044
1.406718 1.119041 0.225837
1.421519 1.084007 0.198675
1.549401 1.199458 0.201996
1.432368 1.047141 0.172399
1.565896 1.142438 0.161494
1.439322 1.008858 0.147217
1.442439 0.969573 0.123337
1.576149 1.083284 0.122824
1.441778 0.929701 0.100965
1.437397 0.889656 0.080310
1.580270 1.022591 0.086268
1.429353 0.849854 0.061580
1.578371 0.960953 0.052113
1.417706 0.810708 0.044983
1.222188 0.579739 0.008911
1.402513 0.772635 0.030725
1.233384 0.585531 0.006745
1.244464 0.591817 0.004918
1.272674 0.449468 -0.089866
1.255410 0.598589 0.003432
1.383832 0.736048 0.019015
1.266207 0.605835 0.002288
1.276839 0.613546 0.001490
1.570563 0.898965 0.020641
1.361721 0.701363 0.010061
1.287289 0.621711 0.001039
1.297541 0.630320 0.000937
1.307578 0.639363 0.001187
1.336239 0.668994 0.004069
1.317384 0.648830 0.001791
1.326943 0.658710 0.002751
1.556957 0.837222 -0.007864
1.537666 0.776319 -0.033117
1.512800 0.716849 -0.054833
1.458796 0.072951 -0.394972
1.286186 0.456776 -0.092299
1.482472 0.659409 -0.072730
1.299106 0.464205 -0.094374
1.311479 0.471789 -0.096094
1.323352 0.479565 -0.097460
1.334770 0.487569 -0.098475
1.446792 0.604592 -0.086522
1.345781 0.495837 -0.099142
1.356430 0.504404 -0.099461
1.366764 0.513307 -0.099435
1.376829 0.522582 -0.099067
1.405872 0.552994 -0.095927
1.386671 0.532264 -0.098358
1.396337 0.542389 -0.097311
0.330057 0.459070 0.375481
0.417937 0.559839 0.389961
0.371410 0.511396 0.385088
0.464983 0.599593 0.389635
0.293748 0.402928 0.361241
0.512103 0.630648 0.384322
0.262621 0.343729 0.342733
0.558852 0.652998 0.374235
0.236811 0.282234 0.320324
0.604787 0.666636 0.359586
0.216456 0.219201 0.294378
0.649464 0.671553 0.340588
0.201693 0.155390 0.265262
0.692436 0.667743 0.317454
0.192657 0.091562 0.233341
0.431885 0.384914 0.283594
0.406061 0.352203 0.277575
0.461281 0.415404 0.286606
0.383583 0.317241 0.268642
0.491060 0.440241 0.286215
0.364518 0.280442 0.256999
0.520939 0.459435 0.282562
0.733261 0.655197 0.290396
0.189486 0.028474 0.198981
0.348929 0.242221 0.242850
0.550638 0.472995 0.275790
0.336883 0.202992 0.226399
0.579874 0.480929 0.266042
0.328445 0.163169 0.207850
0.608366 0.483245 0.253460
0.771494 0.633909 0.259626
0.192317 -0.033113 0.162547
0.323680 0.123169 0.187408
0.635832 0.479954 0.238187
0.322654 0.083404 0.165275
0.661989 0.471063 0.220365
0.806690 0.603870 0.225358
0.201286 -0.092439 0.124404
0.325432 0.044290 0.141658
0.686558 0.456581 0.200136
0.838405 0.565074 0.187803
0.216529 -0.148746 0.084919
0.332080 0.006241 0.116758
0.709254 0.436518 0.177643
0.342662 -0.030328 0.090781
0.729798 0.410881 0.153029
0.866195 0.517512 0.147175
0.238184 -0.201273 0.044457
0.357244 -0.065003 0.063931
0.747907 0.379680 0.126435
0.266842 -0.250843 0.002262
0.376642 -0.099226 0.034989
0.890191 0.460551 0.103047
0.764439 0.341199 0.096468
0.397997 -0.127682 0.008374
0.776612 0.301695 0.068044
0.299235 -0.291739 -0.036818
0.907421 0.400959 0.060723
0.421082 -0.150370 -0.015802
0.784472 0.261418 0.041285
0.445668 -0.167289 -0.037427
0.334925 -0.323934 -0.072555
0.788068 0.220616 0.016307
0.917997 0.339288 0.020462
0.471527 -0.178436 -0.056387
0.787446 0.179540 -0.006768
0.373473 -0.347406 -0.104721
0.922029 0.276091 -0.017475
0.498429 -0.183810 -0.072571
0.782654 0.138439 -0.027824
0.526148 -0.183409 -0.085866
0.773739 0.097563 -0.046740
0.414439 -0.362130 -0.133088
0.919629 0.211919 -0.052828
0.554454 -0.177231 -0.096159
0.760748 0.057161 -0.063398
0.583118 -0.165274 -0.103339
0.743729 0.017482 -0.077678
0.611912 -0.147537 -0.107292
0.722730 -0.021223 -0.089463
0.457385 -0.368081 -0.157428
0.910907 0.147325 -0.085338
0.640608 -0.124018 -0.107906
0.697797 -0.058705 -0.098632
0.668978 -0.094715 -0.105068
0.501873 -0.365236 -0.177513
0.895977 0.082860 -0.114745
0.547463 -0.353569 -0.193115
0.874947 0.019077 -0.140789
0.593716 -0.333057 -0.204006
0.847930 -0.043473 -0.163210
0.640194 -0.303675 -0.209958
0.815038 -0.104238 -0.181747
0.686458 -0.265398 -0.210743
0.776380 -0.162665 -0.196142
0.732069 -0.218203 -0.206134
-0.281702 -0.237383 0.277546
-0.237522 -0.188519 0.283803
-0.265759 -0.217871 0.280873
-0.296787 -0.258401 0.272942
-0.208558 -0.164306 0.283454
-0.310959 -0.280805 0.267106
-0.324166 -0.304472 0.260078
-0.179081 -0.145535 0.279756
-0.336352 -0.329282 0.251902
-0.206430 -1.270340 -0.347104
-0.436744 -0.435588 0.240375
-0.553188 -0.568863 0.221330
-0.391179 -0.527764 0.165681
-0.149303 -0.132510 0.272641
-0.347464 -0.355113 0.242621
-0.357448 -0.381845 0.232278
-0.119437 -0.125534 0.262041
-0.366251 -0.409356 0.220914
-0.089695 -0.124911 0.247886
-0.373817 -0.437525 0.208572
-0.380094 -0.466231 0.195296
-0.060292 -0.130942 0.230108
-0.385027 -0.495353 0.181127
-0.388563 -0.524769 0.166109
-0.242327 -0.364735 0.185851
-0.031440 -0.143932 0.208638
-0.338664 -0.634001 0.079593
-0.333824 -0.601181 0.095912
-0.328594 -0.570777 0.110666
-0.322917 -0.542630 0.123917
-0.316736 -0.516582 0.135727
-0.309994 -0.492474 0.146159
-0.302635 -0.470148 0.155276
-0.294601 -0.449445 0.163140
-0.285836 -0.430207 0.169813
-0.276283 -0.412275 0.175359
-0.265885 -0.395492 0.179838
-0.254585 -0.379698 0.183315
-0.224537 -0.346536 0.187529
-0.206571 -0.332349 0.186839
-0.188546 -0.322138 0.183857
-0.170579 -0.315867 0.178661
-0.003351 -0.164183 0.183408
-0.152788 -0.313500 0.171328
-0.135289 -0.315001 0.161937
-0.118201 -0.320335 0.150563
0.023761 -0.191999 0.154348
-0.101640 -0.329466 0.137286
-0.085723 -0.342359 0.122183
0.049684 -0.227682 0.121391
-0.070568 -0.358978 0.105330
-0.089987 -1.137065 -0.328059
-0.056292 -0.379286 0.086806
0.074204 -0.271537 0.084468
-0.043012 -0.403249 0.066688
0.171684 -0.837571 -0.285260
0.288128 -0.704297 -0.266214
0.808818 1.227372 -0.020702
1.154976 0.158274 -0.798082
0.630592 1.219082 0.061532
0.832078 1.449693 0.094487
0.884947 1.506144 0.100824
0.936207 1.552700 0.102314
0.985760 1.589354 0.099000
1.033512 1.616097 0.090924
1.079367 1.632922 0.078129
1.123228 1.639822 0.060657
1.165000 1.636788 0.038551
0.914795 1.348667 -0.003369
0.946076 1.381738 0.000193
1.204587 1.623812 0.011852
1.023515 0.793050 -0.372650
0.976432 1.408376 0.000544
1.005821 1.428655 -0.002251
1.034195 1.442653 -0.008128
1.061512 1.450445 -0.017020
1.241894 1.600888 -0.019397
1.087726 1.452109 -0.028862
1.112792 1.447719 -0.043590
1.276825 1.568007 -0.055154
1.136666 1.437352 -0.061138
1.159302 1.421084 -0.081441
1.309283 1.525162 -0.095375
1.180657 1.398992 -0.104434
1.200685 1.371151 -0.130051
1.339174 1.472345 -0.140020
1.219341 1.337638 -0.158227
1.234143 1.302604 -0.185389
1.362024 1.418055 -0.182069
1.244991 1.265738 -0.211665
1.378520 1.361035 -0.222570
1.251945 1.227455 -0.236847
1.255063 1.188170 -0.260728
1.388772 1.301882 -0.261241
1.254401 1.148298 -0.283099
1.250020 1.108253 -0.303754
1.392893 1.241189 -0.297796
1.241977 1.068451 -0.322484
1.390994 1.179551 -0.331951
1.230329 1.029305 -0.339082
1.034811 0.798336 -0.375153
1.215136 0.991232 -0.353339
1.046007 0.804128 -0.377319
1.057087 0.810415 -0.379146
1.085298 0.668065 -0.473930
1.068034 0.817186 -0.380633
1.196455 0.954645 -0.365049
1.078831 0.824432 -0.381776
1.089463 0.832143 -0.382575
1.383186 1.117563 -0.363424
1.174345 0.919960 -0.374004
1.099913 0.840308 -0.383026
1.110164 0.848917 -0.383127
1.120201 0.857960 -0.382877
1.148862 0.887591 -0.379995
1.130008 0.867427 -0.382273
1.139567 0.877307 -0.381313
1.369581 1.055820 -0.391928
1.350290 0.994916 -0.417181
1.325424 0.935447 -0.438898
1.271420 0.291549 -0.779036
1.098810 0.675374 -0.476363
1.295095 0.878006 -0.456794
1.111729 0.682802 -0.478438
1.124102 0.690386 -0.480158
1.135975 0.698162 -0.481524
1.147394 0.706166 -0.482540
1.259415 0.823189 -0.470587
1.158404 0.714434 -0.483206
1.169054 0.723001 -0.483525
1.179388 0.731904 -0.483500
1.189452 0.741179 -0.483131
1.218496 0.771591 -0.479991
1.199295 0.750861 -0.482422
1.208960 0.760986 -0.481375
0.230561 0.778437 0.005897
0.142680 0.677667 -0.008583
0.184034 0.729993 0.001024
0.277606 0.818190 0.005571
0.106372 0.621525 -0.022823
0.324726 0.849245 0.000258
0.075244 0.562326 -0.041331
0.371476 0.871595 -0.009830
0.049435 0.500831 -0.063740
0.417411 0.885233 -0.024478
0.029080 0.437798 -0.089686
0.462087 0.890150 -0.043476
0.014316 0.373988 -0.118802
0.505060 0.886340 -0.066610
0.244508 0.603511 -0.100470
0.005281 0.310159 -0.150723
0.218684 0.570800 -0.106489
0.273905 0.634001 -0.097458
0.196207 0.535838 -0.115422
0.303683 0.658838 -0.097850
0.177141 0.499039 -0.127065
0.333563 0.678032 -0.101503
0.545885 0.873794 -0.093668
0.002110 0.247071 -0.185083
0.161553 0.460818 -0.141214
0.363262 0.691592 -0.108274
0.149507 0.421589 -0.157665
0.392498 0.699526 -0.118022
0.141069 0.381767 -0.176214
0.420990 0.701843 -0.130604
0.584118 0.852506 -0.124438
0.004941 0.185485 -0.221518
0.136304 0.341766 -0.196657
0.448455 0.698551 -0.145877
0.135278 0.302001 -0.218789
0.474613 0.689660 -0.163700
0.619314 0.822467 -0.158706
0.013909 0.126158 -0.259660
0.138056 0.262887 -0.242407
0.499181 0.675178 -0.183928
0.651029 0.783671 -0.196261
0.029153 0.069851 -0.299145
0.144703 0.224838 -0.267306
0.521878 0.655115 -0.206421
0.155286 0.188269 -0.293283
0.542421 0.629478 -0.231035
0.678818 0.736109 -0.236889
0.050808 0.017324 -0.339607
0.169868 0.153594 -0.320133
0.560530 0.598277 -0.257629
0.079466 -0.032246 -0.381802
0.189265 0.119371 -0.349075
0.702814 0.679148 -0.281017
0.577063 0.559797 -0.287597
0.210620 0.090915 -0.375690
0.589235 0.520293 -0.316020
0.111859 -0.073141 -0.420882
0.720045 0.619556 -0.323341
0.233705 0.068227 -0.399866
0.597096 0.480015 -0.342780
0.258291 0.051308 -0.421491
0.147549 -0.105337 -0.456620
0.600691 0.439214 -0.367757
0.730620 0.557886 -0.363602
0.284150 0.040161 -0.440451
0.600069 0.398137 -0.390833
0.186096 -0.128809 -0.488786
0.734652 0.494688 -0.401539
0.311053 0.034787 -0.456635
0.595277 0.357036 -0.411888
0.338772 0.035188 -0.469930
0.586362 0.316160 -0.430804
0.227063 -0.143533 -0.517152
0.732252 0.430517 -0.436892
0.367077 0.041366 -0.480224
0.573372 0.275758 -0.447462
0.395742 0.053323 -0.487403
0.556353 0.236079 -0.461743
0.424536 0.071060 -0.491356
0.535353 0.197374 -0.473527
0.270009 -0.149484 -0.541492
0.723531 0.365922 -0.469403
0.453232 0.094579 -0.491970
0.510420 0.159892 -0.482697
0.481601 0.123882 -0.489132
0.314496 -0.146639 -0.561577
0.708600 0.301457 -0.498809
0.360086 -0.134972 -0.577179
0.687571 0.237674 -0.524853
0.406340 -0.114460 -0.588070
0.660554 0.175124 -0.547274
0.452818 -0.085077 -0.594022
0.627661 0.114359 -0.565812
0.499082 -0.046801 -0.594808
0.589004 0.055932 -0.580206
0.544693 0.000395 -0.590198
-0.424898 0.030078 -0.100261
-0.469078 -0.018786 -0.106519
-0.453135 0.000726 -0.103191
-0.484163 -0.039804 -0.111122
-0.395935 0.054292 -0.100610
-0.498336 -0.062207 -0.116959
-0.511542 -0.085874 -0.123986
-0.366457 0.073062 -0.104308
-0.523728 -0.110684 -0.132162
-0.624121 -0.216991 -0.143689
-0.393807 -1.051743 -0.731168
-0.740564 -0.350266 -0.162734
-0.578556 -0.309167 -0.218383
-0.336679 0.086087 -0.111423
-0.534840 -0.136516 -0.141443
-0.544825 -0.163248 -0.151787
-0.306813 0.093063 -0.122024
-0.553627 -0.190759 -0.163151
-0.277072 0.093687 -0.136179
-0.561193 -0.218928 -0.175492
-0.567470 -0.247634 -0.188768
-0.247669 0.087655 -0.153957
-0.572403 -0.276756 -0.202937
-0.575939 -0.306172 -0.217955
-0.429703 -0.146137 -0.198213
-0.218816 0.074666 -0.175426
-0.526040 -0.415404 -0.304471
-0.521201 -0.382584 -0.288152
-0.515971 -0.352180 -0.273398
-0.510294 -0.324033 -0.260148
-0.504113 -0.297985 -0.248337
-0.497371 -0.273877 -0.237905
-0.490011 -0.251550 -0.228788
-0.481977 -0.230848 -0.220924
-0.473212 -0.211610 -0.214251
-0.463659 -0.193678 -0.208706
-0.453261 -0.176894 -0.204226
-0.441961 -0.161100 -0.200749
-0.411913 -0.127939 -0.196535
-0.393947 -0.113752 -0.197225
-0.375922 -0.103541 -0.200207
-0.357955 -0.097270 -0.205403
-0.190727 0.054414 -0.200657
-0.340164 -0.094902 -0.212736
-0.322666 -0.096404 -0.222128
-0.305577 -0.101738 -0.233501
-0.163615 0.026599 -0.229716
-0.289016 -0.110869 -0.246778
-0.273099 -0.123762 -0.261881
-0.137693 -0.009085 -0.262673
-0.257944 -0.140381 -0.278734
-0.277363 -0.918468 -0.712123
-0.243668 -0.160689 -0.297258
-0.113172 -0.052939 -0.299596
-0.230388 -0.184652 -0.317376
-0.015692 -0.618974 -0.669324
0.100752 -0.485699 -0.650278
-0.388563 -0.524769 0.166109
-0.385027 -0.495353 0.181127
-0.572403 -0.276756 -0.202937
-0.575939 -0.306172 -0.217955
-0.380094 -0.466231 0.195296
-0.567470 -0.247634 -0.188768
-0.373817 -0.437525 0.208572
-0.561193 -0.218928 -0.175492
-0.366251 -0.409356 0.220914
-0.553627 -0.190759 -0.163151
-0.357448 -0.381845 0.232278
-0.544825 -0.163248 -0.151787
-0.347464 -0.355113 0.242621
-0.534840 -0.136516 -0.141443
-0.336352 -0.329282 0.251902
-0.523728 -0.110684 -0.132162
-0.324166 -0.304472 0.260078
-0.511542 -0.085874 -0.123986
-0.310959 -0.280805 0.267106
-0.498336 -0.062207 -0.116959
-0.296787 -0.258401 0.272942
-0.484163 -0.039804 -0.111122
-0.281702 -0.237383 0.277546
-0.469078 -0.018786 -0.106519
-0.265759 -0.217871 0.280873
-0.453135 0.000726 -0.103191
-0.237522 -0.188519 0.283803
-0.424898 0.030078 -0.100261
-0.208558 -0.164306 0.283454
-0.395935 0.054292 -0.100610
-0.179081 -0.145535 0.279756
-0.366457 0.073062 -0.104308
-0.149303 -0.132510 0.272641
-0.336679 0.086087 -0.111423
-0.119437 -0.125534 0.262041
-0.306813 0.093063 -0.122024
-0.089695 -0.124911 0.247886
-0.277072 0.093687 -0.136179
-0.060292 -0.130942 0.230108
-0.247669 0.087655 -0.153957
-0.031440 -0.143932 0.208638
-0.218816 0.074666 -0.175426
-0.003351 -0.164183 0.183408
-0.190727 0.054414 -0.200657
0.023761 -0.191999 0.154348
-0.163615 0.026599 -0.229716
0.049684 -0.227682 0.121391
-0.137693 -0.009085 -0.262673
0.074204 -0.271537 0.084468
-0.113172 -0.052939 -0.299596
0.288128 -0.704297 -0.266214
0.100752 -0.485699 -0.650278
0.171684 -0.837571 -0.285260
-0.015692 -0.618974 -0.669324
-0.043012 -0.403249 0.066688
-0.230388 -0.184652 -0.317376
-0.056292 -0.379286 0.086806
-0.243668 -0.160689 -0.297258
-0.070568 -0.358978 0.105330
-0.257944 -0.140381 -0.278734
-0.085723 -0.342359 0.122183
-0.273099 -0.123762 -0.261881
-0.101640 -0.329466 0.137286
-0.289016 -0.110869 -0.246778
-0.118201 -0.320335 0.150563
-0.305577 -0.101738 -0.233501
-0.135289 -0.315001 0.161937
-0.322666 -0.096404 -0.222128
-0.152788 -0.313500 0.171328
-0.340164 -0.094902 -0.212736
-0.170579 -0.315867 0.178661
-0.357955 -0.097270 -0.205403
-0.188546 -0.322138 0.183857
-0.375922 -0.103541 -0.200207
-0.206571 -0.332349 0.186839
-0.393947 -0.113752 -0.197225
-0.224537 -0.346536 0.187529
-0.411913 -0.127939 -0.196535
-0.242327 -0.364735 0.185851
-0.429703 -0.146137 -0.198213
-0.254585 -0.379698 0.183315
-0.441961 -0.161100 -0.200749
-0.265885 -0.395492 0.179838
-0.453261 -0.176894 -0.204226
-0.276283 -0.412275 0.175359
-0.463659 -0.193678 -0.208706
-0.285836 -0.430207 0.169813
-0.473212 -0.211610 -0.214251
-0.294601 -0.449445 0.163140
-0.481977 -0.230848 -0.220924
-0.302635 -0.470148 0.155276
-0.490011 -0.251550 -0.228788
-0.309994 -0.492474 0.146159
-0.497371 -0.273877 -0.237905
-0.316736 -0.516582 0.135727
-0.504113 -0.297985 -0.248337
-0.322917 -0.542630 0.123917
-0.510294 -0.324033 -0.260148
-0.328594 -0.570777 0.110666
-0.515971 -0.352180 -0.273398
-0.333824 -0.601181 0.095912
-0.521201 -0.382584 -0.288152
-0.338664 -0.634001 0.079593
-0.526040 -0.415404 -0.304471
-0.089987 -1.137065 -0.328059
-0.277363 -0.918468 -0.712123
-0.206430 -1.270340 -0.347104
-0.393807 -1.051743 -0.731168
-0.553188 -0.568863 0.221330
-0.740564 -0.350266 -0.162734
-0.436744 -0.435588 0.240375
-0.624121 -0.216991 -0.143689
-0.391179 -0.527764 0.165681
-0.578556 -0.309167 -0.218383
0.890191 0.460551 0.103047
0.907421 0.400959 0.060723
0.720045 0.619556 -0.323341
0.702814 0.679148 -0.281017
0.917997 0.339288 0.020462
0.730620 0.557886 -0.363602
0.922029 0.276091 -0.017475
0.734652 0.494688 -0.401539
0.919629 0.211919 -0.052828
0.732252 0.430517 -0.436892
0.910907 0.147325 -0.085338
0.723531 0.365922 -0.469403
0.895977 0.082860 -0.114745
0.708600 0.301457 -0.498809
0.874947 0.019077 -0.140789
0.687571 0.237674 -0.524853
0.847930 -0.043473 -0.163210
0.660554 0.175124 -0.547274
0.815038 -0.104238 -0.181747
0.627661 0.114359 -0.565812
0.776380 -0.162665 -0.196142
0.589004 0.055932 -0.580206
0.732069 -0.218203 -0.206134
0.544693 0.000395 -0.590198
0.686458 -0.265398 -0.210743
0.499082 -0.046801 -0.594808
0.640194 -0.303675 -0.209958
0.452818 -0.085077 -0.594022
0.593716 -0.333057 -0.204006
0.406340 -0.114460 -0.588070
0.547463 -0.353569 -0.193115
0.360086 -0.134972 -0.577179
0.501873 -0.365236 -0.177513
0.314496 -0.146639 -0.561577
0.457385 -0.368081 -0.157428
0.270009 -0.149484 -0.541492
0.414439 -0.362130 -0.133088
0.227063 -0.143533 -0.517152
0.373473 -0.347406 -0.104721
0.186096 -0.128809 -0.488786
0.334925 -0.323934 -0.072555
0.147549 -0.105337 -0.456620
0.299235 -0.291739 -0.036818
0.111859 -0.073141 -0.420882
0.266842 -0.250843 0.002262
0.079466 -0.032246 -0.381802
0.238184 -0.201273 0.044457
0.050808 0.017324 -0.339607
0.216529 -0.148746 0.084919
0.029153 0.069851 -0.299145
0.201286 -0.092439 0.124404
0.013909 0.126158 -0.259660
0.192317 -0.033113 0.162547
0.004941 0.185485 -0.221518
0.189486 0.028474 0.198981
0.002110 0.247071 -0.185083
0.192657 0.091562 0.233341
0.005281 0.310159 -0.150723
0.201693 0.155390 0.265262
0.014316 0.373988 -0.118802
0.216456 0.219201 0.294378
0.029080 0.437798 -0.089686
0.236811 0.282234 0.320324
0.049435 0.500831 -0.063740
0.262621 0.343729 0.342733
0.075244 0.562326 -0.041331
0.293748 0.402928 0.361241
0.106372 0.621525 -0.022823
0.330057 0.459070 0.375481
0.142680 0.677667 -0.008583
0.371410 0.511396 0.385088
0.184034 0.729993 0.001024
0.417937 0.559839 0.389961
0.230561 0.778437 0.005897
0.464983 0.599593 0.389635
0.277606 0.818190 0.005571
0.512103 0.630648 0.384322
0.324726 0.849245 0.000258
0.558852 0.652998 0.374235
0.371476 0.871595 -0.009830
0.604787 0.666636 0.359586
0.417411 0.885233 -0.024478
0.649464 0.671553 0.340588
0.462087 0.890150 -0.043476
0.692436 0.667743 0.317454
0.505060 0.886340 -0.066610
0.733261 0.655197 0.290396
0.545885 0.873794 -0.093668
0.771494 0.633909 0.259626
0.584118 0.852506 -0.124438
0.806690 0.603870 0.225358
0.619314 0.822467 -0.158706
0.838405 0.565074 0.187803
0.651029 0.783671 -0.196261
0.866195 0.517512 0.147175
0.678818 0.736109 -0.236889
0.376642 -0.099226 0.034989
0.397997 -0.127682 0.008374
0.210620 0.090915 -0.375690
0.189265 0.119371 -0.349075
0.421082 -0.150370 -0.015802
0.233705 0.068227 -0.399866
0.445668 -0.167289 -0.037427
0.258291 0.051308 -0.421491
0.471527 -0.178436 -0.056387
0.284150 0.040161 -0.440451
0.498429 -0.183810 -0.072571
0.311053 0.034787 -0.456635
0.526148 -0.183409 -0.085866
0.338772 0.035188 -0.469930
0.554454 -0.177231 -0.096159
0.367077 0.041366 -0.480224
0.583118 -0.165274 -0.103339
0.395742 0.053323 -0.487403
0.611912 -0.147537 -0.107292
0.424536 0.071060 -0.491356
0.640608 -0.124018 -0.107906
0.453232 0.094579 -0.491970
0.668978 -0.094715 -0.105068
0.481601 0.123882 -0.489132
0.697797 -0.058705 -0.098632
0.510420 0.159892 -0.482697
0.722730 -0.021223 -0.089463
0.535353 0.197374 -0.473527
0.743729 0.017482 -0.077678
0.556353 0.236079 -0.461743
0.760748 0.057161 -0.063398
0.573372 0.275758 -0.447462
0.773739 0.097563 -0.046740
0.586362 0.316160 -0.430804
0.782654 0.138439 -0.027824
0.595277 0.357036 -0.411888
0.787446 0.179540 -0.006768
0.600069 0.398137 -0.390833
0.788068 0.220616 0.016307
0.600691 0.439214 -0.367757
0.784472 0.261418 0.041285
0.597096 0.480015 -0.342780
0.776612 0.301695 0.068044
0.589235 0.520293 -0.316020
0.764439 0.341199 0.096468
0.577063 0.559797 -0.287597
0.747907 0.379680 0.126435
0.560530 0.598277 -0.257629
0.729798 0.410881 0.153029
0.542421 0.629478 -0.231035
0.709254 0.436518 0.177643
0.521878 0.655115 -0.206421
0.686558 0.456581 0.200136
0.499181 0.675178 -0.183928
0.661989 0.471063 0.220365
0.474613 0.689660 -0.163700
0.635832 0.479954 0.238187
0.448455 0.698551 -0.145877
0.608366 0.483245 0.253460
0.420990 0.701843 -0.130604
0.579874 0.480929 0.266042
0.392498 0.699526 -0.118022
0.550638 0.472995 0.275790
0.363262 0.691592 -0.108274
0.520939 0.459435 0.282562
0.333563 0.678032 -0.101503
0.491060 0.440241 0.286215
0.303683 0.658838 -0.097850
0.461281 0.415404 0.286606
0.273905 0.634001 -0.097458
0.431885 0.384914 0.283594
0.244508 0.603511 -0.100470
0.406061 0.352203 0.277575
0.218684 0.570800 -0.106489
0.383583 0.317241 0.268642
0.196207 0.535838 -0.115422
0.364518 0.280442 0.256999
0.177141 0.499039 -0.127065
0.348929 0.242221 0.242850
0.161553 0.460818 -0.141214
0.336883 0.202992 0.226399
0.149507 0.421589 -0.157665
0.328445 0.163169 0.207850
0.141069 0.381767 -0.176214
0.323680 0.123169 0.187408
0.136304 0.341766 -0.196657
0.322654 0.083404 0.165275
0.135278 0.302001 -0.218789
0.325432 0.044290 0.141658
0.138056 0.262887 -0.242407
0.332080 0.006241 0.116758
0.144703 0.224838 -0.267306
0.342662 -0.030328 0.090781
0.155286 0.188269 -0.293283
0.357244 -0.065003 0.063931
0.169868 0.153594 -0.320133
1.342352 -0.060323 -0.414018
0.817968 1.000485 0.445597
0.630592 1.219082 0.061532
1.154976 0.158274 -0.798082
1.019455 1.231095 0.478552
0.832078 1.449693 0.094487
1.072324 1.287547 0.484888
0.884947 1.506144 0.100824
1.123583 1.334103 0.486378
0.936207 1.552700 0.102314
1.173137 1.370757 0.483064
0.985760 1.589354 0.099000
1.220889 1.397500 0.474989
1.033512 1.616097 0.090924
1.266743 1.414325 0.462194
1.079367 1.632922 0.078129
1.310604 1.421224 0.444722
1.123228 1.639822 0.060657
1.352376 1.418190 0.422615
1.165000 1.636788 0.038551
1.391964 1.405215 0.395916
1.204587 1.623812 0.011852
1.429271 1.382291 0.364667
1.241894 1.600888 -0.019397
1.464201 1.349410 0.328911
1.276825 1.568007 -0.055154
1.496660 1.306565 0.288689
1.309283 1.525162 -0.095375
1.526550 1.253748 0.244044
1.339174 1.472345 -0.140020
1.549401 1.199458 0.201996
1.362024 1.418055 -0.182069
1.565896 1.142438 0.161494
1.378520 1.361035 -0.222570
1.576149 1.083284 0.122824
1.388772 1.301882 -0.261241
1.580270 1.022591 0.086268
1.392893 1.241189 -0.297796
1.578371 0.960953 0.052113
1.390994 1.179551 -0.331951
1.570563 0.898965 0.020641
1.383186 1.117563 -0.363424
1.556957 0.837222 -0.007864
1.369581 1.055820 -0.391928
1.537666 0.776319 -0.033117
1.350290 0.994916 -0.417181
1.512800 0.716849 -0.054833
1.325424 0.935447 -0.438898
1.482472 0.659409 -0.072730
1.295095 0.878006 -0.456794
1.446792 0.604592 -0.086522
1.259415 0.823189 -0.470587
1.405872 0.552994 -0.095927
1.218496 0.771591 -0.479991
1.396337 0.542389 -0.097311
1.208960 0.760986 -0.481375
1.386671 0.532264 -0.098358
1.199295 0.750861 -0.482422
1.376829 0.522582 -0.099067
1.189452 0.741179 -0.483131
1.366764 0.513307 -0.099435
1.179388 0.731904 -0.483500
1.356430 0.504404 -0.099461
1.169054 0.723001 -0.483525
1.345781 0.495837 -0.099142
1.158404 0.714434 -0.483206
1.334770 0.487569 -0.098475
1.147394 0.706166 -0.482540
1.323352 0.479565 -0.097460
1.135975 0.698162 -0.481524
1.311479 0.471789 -0.096094
1.124102 0.690386 -0.480158
1.299106 0.464205 -0.094374
1.111729 0.682802 -0.478438
1.286186 0.456776 -0.092299
1.098810 0.675374 -0.476363
1.272674 0.449468 -0.089866
1.085298 0.668065 -0.473930
1.458796 0.072951 -0.394972
1.271420 0.291549 -0.779036
1.222188 0.579739 0.008911
1.233384 0.585531 0.006745
1.046007 0.804128 -0.377319
1.034811 0.798336 -0.375153
1.244464 0.591817 0.004918
1.057087 0.810415 -0.379146
1.255410 0.598589 0.003432
1.068034 0.817186 -0.380633
1.266207 0.605835 0.002288
1.078831 0.824432 -0.381776
1.276839 0.613546 0.001490
1.089463 0.832143 -0.382575
1.287289 0.621711 0.001039
1.099913 0.840308 -0.383026
1.297541 0.630320 0.000937
1.110164 0.848917 -0.383127
1.307578 0.639363 0.001187
1.120201 0.857960 -0.382877
1.317384 0.648830 0.001791
1.130008 0.867427 -0.382273
1.326943 0.658710 0.002751
1.139567 0.877307 -0.381313
1.336239 0.668994 0.004069
1.148862 0.887591 -0.379995
1.361721 0.701363 0.010061
1.174345 0.919960 -0.374004
1.383832 0.736048 0.019015
1.196455 0.954645 -0.365049
1.402513 0.772635 0.030725
1.215136 0.991232 -0.353339
1.417706 0.810708 0.044983
1.230329 1.029305 -0.339082
1.429353 0.849854 0.061580
1.241977 1.068451 -0.322484
1.437397 0.889656 0.080310
1.250020 1.108253 -0.303754
1.441778 0.929701 0.100965
1.254401 1.148298 -0.283099
1.442439 0.969573 0.123337
1.255063 1.188170 -0.260728
1.439322 1.008858 0.147217
1.251945 1.227455 -0.236847
1.432368 1.047141 0.172399
1.244991 1.265738 -0.211665
1.421519 1.084007 0.198675
1.234143 1.302604 -0.185389
1.406718 1.119041 0.225837
1.219341 1.337638 -0.158227
1.388061 1.152554 0.254013
1.200685 1.371151 -0.130051
1.368033 1.180395 0.279631
1.180657 1.398992 -0.104434
1.346679 1.202487 0.302623
1.159302 1.421084 -0.081441
1.324042 1.218755 0.322926
1.136666 1.437352 -0.061138
1.300169 1.229121 0.340474
1.112792 1.447719 -0.043590
1.275102 1.233511 0.355202
1.087726 1.452109 -0.028862
1.248888 1.231848 0.367045
1.061512 1.450445 -0.017020
1.221572 1.224056 0.375937
1.034195 1.442653 -0.008128
1.193197 1.210058 0.381813
1.005821 1.428655 -0.002251
1.163809 1.189779 0.384608
0.976432 1.408376 0.000544
1.133452 1.163141 0.384258
0.946076 1.381738 0.000193
1.102171 1.130070 0.380696
0.914795 1.348667 -0.003369
0.996195 1.008775 0.363362
0.808818 1.227372 -0.020702
1.210891 0.574453 0.011414
1.023515 0.793050 -0.372650
3 0 1 2
3 1 3 2
3 1 4 3
3 1 5 4
3 1 6 5
3 1 7 6
3 1 8 7
3 1 9 8
3 1 10 9
3 1 11 10
3 11 12 10
3 12 13 10
3 0 14 1
3 15 13 12
3 16 13 15
3 17 13 16
3 18 13 17
3 18 19 13
3 20 19 18
3 21 19 20
3 21 22 19
3 23 22 21
3 24 22 23
3 24 25 22
3 26 25 24
3 27 25 26
3 27 28 25
3 29 28 27
3 30 28 29
3 30 31 28
3 32 31 30
3 32 33 31
3 34 33 32
3 35 33 34
3 35 36 33
3 37 36 35
3 38 36 37
3 38 39 36
3 40 39 38
3 40 41 39
3 42 41 40
3 0 43 14
3 44 41 42
3 0 45 43
3 0 46 45
3 0 47 46
3 47 48 46
3 49 41 44
3 47 50 48
3 47 51 50
3 49 52 41
3 53 52 49
3 47 54 51
3 47 55 54
3 47 56 55
3 57 52 53
3 47 58 56
3 47 59 58
3 47 57 59
3 47 52 57
3 47 60 52
3 47 61 60
3 47 62 61
3 0 63 47
3 64 62 47
3 64 65 62
3 66 65 64
3 67 65 66
3 68 65 67
3 69 65 68
3 69 70 65
3 71 70 69
3 72 70 71
3 73 70 72
3 74 70 73
3 74 75 70
3 76 75 74
3 77 75 76
3 78 79 80
3 78 81 79
3 82 81 78
3 82 83 81
3 84 83 82
3 84 85 83
3 86 85 84
3 86 87 85
3 88 87 86
3 88 89 87
3 90 89 88
3 90 91 89
3 92 93 90
3 93 91 90
3 92 94 93
3 95 91 93
3 92 96 94
3 97 91 95
3 92 98 96
3 99 91 97
3 99 100 91
3 101 98 92
3 101 102 98
3 103 100 99
3 101 104 102
3 105 100 103
3 101 106 104
3 107 100 105
3 107 108 100
3 109 106 101
3 109 110 106
3 111 108 107
3 109 112 110
3 113 108 111
3 113 114 108
3 115 112 109
3 115 116 112
3 117 114 113
3 117 118 114
3 119 116 115
3 119 120 116
3 121 118 117
3 119 122 120
3 123 118 121
3 123 124 118
3 125 122 119
3 125 126 122
3 127 124 123
3 128 126 125
3 128 129 126
3 127 130 124
3 131 130 127
3 128 132 129
3 133 130 131
3 134 132 128
3 133 135 130
3 134 136 132
3 137 135 133
3 134 138 136
3 139 138 134
3 140 135 137
3 140 141 135
3 139 142 138
3 143 141 140
3 144 142 139
3 143 145 141
3 144 146 142
3 147 145 143
3 144 148 146
3 149 145 147
3 150 148 144
3 149 151 145
3 150 152 148
3 153 151 149
3 150 154 152
3 155 151 153
3 150 156 154
3 157 151 155
3 158 156 150
3 157 159 151
3 158 160 156
3 161 159 157
3 158 162 160
3 162 159 161
3 158 159 162
3 163 159 158
3 163 164 159
3 165 164 163
3 165 166 164
3 167 166 165
3 167 168 166
3 169 168 167
3 169 170 168
3 171 170 169
3 171 172 170
3 173 172 171
3 174 175 176
3 177 175 174
3 177 178 175
3 179 178 177
3 180 178 179
3 180 181 178
3 182 181 180
3 183 184 185
3 183 186 184
3 182 187 181
3 188 187 182
3 189 187 188
3 189 190 187
3 191 190 189
3 191 192 190
3 193 192 191
3 194 192 193
3 194 195 192
3 196 195 194
3 197 195 196
3 197 198 195
3 198 199 195
3 183 197 186
3 183 200 197
3 200 201 197
3 201 202 197
3 202 203 197
3 203 204 197
3 204 205 197
3 205 206 197
3 206 207 197
3 207 208 197
3 208 209 197
3 209 210 197
3 210 211 197
3 211 198 197
3 212 199 198
3 213 199 212
3 214 199 213
3 215 199 214
3 215 216 199
3 217 216 215
3 218 216 217
3 219 216 218
3 219 220 216
3 221 220 219
3 222 220 221
3 222 223 220
3 224 223 222
3 183 225 200
3 226 223 224
3 226 227 223
3 228 227 226
3 229 227 228
3 229 230 227
3 231 232 233
3 234 231 233
3 235 231 234
3 236 231 235
3 237 231 236
3 238 231 237
3 239 231 238
3 240 231 239
3 241 231 240
3 242 231 241
3 243 242 241
3 244 243 241
3 245 232 231
3 244 246 243
3 244 247 246
3 244 248 247
3 244 249 248
3 250 249 244
3 250 251 249
3 250 252 251
3 253 252 250
3 253 254 252
3 253 255 254
3 256 255 253
3 256 257 255
3 256 258 257
3 259 258 256
3 259 260 258
3 259 261 260
3 262 261 259
3 262 263 261
3 264 263 262
3 264 265 263
3 264 266 265
3 267 266 264
3 267 268 266
3 267 269 268
3 270 269 267
3 270 271 269
3 272 271 270
3 272 273 271
3 274 232 245
3 272 275 273
3 276 232 274
3 277 232 276
3 278 232 277
3 279 278 277
3 272 280 275
3 281 278 279
3 282 278 281
3 283 280 272
3 283 284 280
3 285 278 282
3 286 278 285
3 287 278 286
3 283 288 284
3 289 278 287
3 290 278 289
3 288 278 290
3 283 278 288
3 291 278 283
3 292 278 291
3 293 278 292
3 294 232 278
3 293 295 278
3 296 295 293
3 296 297 295
3 296 298 297
3 296 299 298
3 296 300 299
3 301 300 296
3 301 302 300
3 301 303 302
3 301 304 303
3 301 305 304
3 306 305 301
3 306 307 305
3 306 308 307
3 309 310 311
3 312 310 309
3 312 313 310
3 314 313 312
3 314 315 313
3 316 315 314
3 316 317 315
3 318 317 316
3 318 319 317
3 320 319 318
3 320 321 319
3 322 321 320
3 323 324 321
3 322 323 321
3 325 324 323
3 322 326 323
3 327 324 325
3 322 328 326
3 329 324 327
3 322 330 328
3 331 330 322
3 329 332 324
3 333 332 329
3 331 334 330
3 335 332 333
3 331 336 334
3 337 332 335
3 331 338 336
3 339 338 331
3 337 340 332
3 341 340 337
3 339 342 338
3 343 340 341
3 339 344 342
3 345 344 339
3 343 346 340
3 347 346 343
3 345 348 344
3 349 348 345
3 347 350 346
3 351 350 347
3 349 352 348
3 353 350 351
3 349 354 352
3 355 354 349
3 353 356 350
3 357 356 353
3 355 358 354
3 357 359 356
3 360 359 357
3 361 358 355
3 361 362 358
3 363 359 360
3 361 364 362
3 363 365 359
3 366 364 361
3 367 365 363
3 366 368 364
3 369 365 367
3 369 370 365
3 366 371 368
3 372 371 366
3 373 370 369
3 372 374 371
3 373 375 370
3 376 374 372
3 377 375 373
3 376 378 374
3 379 375 377
3 376 380 378
3 379 381 375
3 382 380 376
3 383 381 379
3 382 384 380
3 385 381 383
3 382 386 384
3 387 381 385
3 382 388 386
3 387 389 381
3 390 388 382
3 391 389 387
3 390 392 388
3 393 389 391
3 390 393 392
3 390 389 393
3 390 394 389
3 395 394 390
3 395 396 394
3 397 396 395
3 397 398 396
3 399 398 397
3 399 400 398
3 401 400 399
3 401 402 400
3 403 402 401
3 403 404 402
3 405 406 407
3 405 408 406
3 409 408 405
3 409 410 408
3 409 411 410
3 412 411 409
3 412 413 411
3 414 415 416
3 417 415 414
3 418 413 412
3 418 419 413
3 418 420 419
3 421 420 418
3 421 422 420
3 423 422 421
3 423 424 422
3 423 425 424
3 426 425 423
3 426 427 425
3 426 428 427
3 429 428 426
3 430 429 426
3 428 415 417
3 431 415 428
3 432 431 428
3 433 432 428
3 434 433 428
3 435 434 428
3 436 435 428
3 437 436 428
3 438 437 428
3 439 438 428
3 440 439 428
3 441 440 428
3 442 441 428
3 429 442 428
3 430 443 429
3 430 444 443
3 430 445 444
3 430 446 445
3 447 446 430
3 447 448 446
3 447 449 448
3 447 450 449
3 451 450 447
3 451 452 450
3 451 453 452
3 454 453 451
3 454 455 453
3 456 415 431
3 454 457 455
3 458 457 454
3 458 459 457
3 458 460 459
3 461 460 458
4 462 463 464 465
4 463 466 467 464
4 466 468 469 467
4 468 470 471 469
4 470 472 473 471
4 472 474 475 473
4 474 476 477 475
4 476 478 479 477
4 478 480 481 479
4 480 482 483 481
4 482 484 485 483
4 484 486 487 485
4 486 488 489 487
4 488 490 491 489
4 490 492 493 491
4 492 494 495 493
4 494 496 497 495
4 496 498 499 497
4 498 500 501 499
4 500 502 503 501
4 502 504 505 503
4 504 506 507 505
4 506 508 509 507
4 508 510 511 509
4 510 512 513 511
4 512 514 515 513
4 514 516 517 515
4 516 518 519 517
4 518 520 521 519
4 520 522 523 521
4 522 524 525 523
4 524 526 527 525
4 526 528 529 527
4 528 530 531 529
4 530 532 533 531
4 532 534 535 533
4 534 536 537 535
4 536 538 539 537
4 538 540 541 539
4 540 542 543 541
4 542 544 545 543
4 544 546 547 545
4 546 548 549 547
4 548 550 551 549
4 550 552 553 551
4 552 554 555 553
4 554 556 557 555
4 556 558 559 557
4 558 560 561 559
4 560 562 563 561
4 562 564 565 563
4 564 566 567 565
4 566 568 569 567
4 568 570 571 569
4 570 572 573 571
4 572 574 575 573
4 574 462 465 575
4 576 577 578 579
4 577 580 581 578
4 580 582 583 581
4 582 584 585 583
4 584 586 587 585
4 586 588 589 587
4 588 590 591 589
4 590 592 593 591
4 592 594 595 593
4 594 596 597 595
4 596 598 599 597
4 598 600 601 599
4 600 602 603 601
4 602 604 605 603
4 604 606 607 605
4 606 608 609 607
4 608 610 611 609
4 610 612 613 611
4 612 614 615 613
4 614 616 617 615
4 616 618 619 617
4 618 620 621 619
4 620 622 623 621
4 622 624 625 623
4 624 626 627 625
4 626 628 629 627
4 628 630 631 629
4 630 632 633 631
4 632 634 635 633
4 634 636 637 635
4 636 638 639 637
4 638 640 641 639
4 640 642 643 641
4 642 644 645 643
4 644 646 647 645
4 646 648 649 647
4 648 650 651 649
4 650 652 653 651
4 652 654 655 653
4 654 656 657 655
4 656 658 659 657
4 658 660 661 659
4 660 662 663 661
4 662 664 665 663
4 664 666 667 665
4 666 668 669 667
4 668 670 671 669
4 670 576 579 671
4 672 673 674 675
4 673 676 677 674
4 676 678 679 677
4 678 680 681 679
4 680 682 683 681
4 682 684 685 683
4 684 686 687 685
4 686 688 689 687
4 688 690 691 689
4 690 692 693 691
4 692 694 695 693
4 694 696 697 695
4 696 698 699 697
4 698 700 701 699
4 700 702 703 701
4 702 704 705 703
4 704 706 707 705
4 706 708 709 707
4 708 710 711 709
4 710 712 713 711
4 712 714 715 713
4 714 716 717 715
4 716 718 719 717
4 718 720 721 719
4 720 722 723 721
4 722 724 725 723
4 724 726 727 725
4 726 728 729 727
4 728 730 731 729
4 730 732 733 731
4 732 734 735 733
4 734 736 737 735
4 736 738 739 737
4 738 740 741 739
4 740 742 743 741
4 742 744 745 743
4 744 746 747 745
4 746 748 749 747
4 748 750 751 749
4 750 752 753 751
4 752 754 755 753
4 754 756 757 755
4 756 758 759 757
4 758 760 761 759
4 760 762 763 761
4 762 764 765 763
4 764 766 767 765
4 766 672 675 767
4 768 769 770 771
4 769 772 773 770
4 772 774 775 773
4 774 776 777 775
4 776 778 779 777
4 778 780 781 779
4 780 782 783 781
4 782 784 785 783
4 784 786 787 785
4 786 788 789 787
4 788 790 791 789
4 790 792 793 791
4 792 794 795 793
4 794 796 797 795
4 796 798 799 797
4 798 800 801 799
4 800 802 803 801
4 802 804 805 803
4 804 806 807 805
4 806 808 809 807
4 808 810 811 809
4 810 812 813 811
4 812 814 815 813
4 814 816 817 815
4 816 818 819 817
4 818 820 821 819
4 820 822 823 821
4 822 824 825 823
4 824 826 827 825
4 826 828 829 827
4 828 830 831 829
4 830 832 833 831
4 832 834 835 833
4 834 836 837 835
4 836 838 839 837
4 838 840 841 839
4 840 842 843 841
4 842 844 845 843
4 844 846 847 845
4 846 768 771 847
4 848 849 850 851
4 849 852 853 850
4 852 854 855 853
4 854 856 857 855
4 856 858 859 857
4 858 860 861 859
4 860 862 863 861
4 862 864 865 863
4 864 866 867 865
4 866 868 869 867
4 868 870 871 869
4 870 872 873 871
4 872 874 875 873
4 874 876 877 875
4 876 878 879 877
4 878 880 881 879
4 880 882 883 881
4 882 884 885 883
4 884 886 887 885
4 886 888 889 887
4 888 890 891 889
4 890 892 893 891
4 892 894 895 893
4 894 896 897 895
4 896 898 899 897
4 898 900 901 899
4 900 902 903 901
4 902 904 905 903
4 904 906 907 905
4 906 908 909 907
4 908 910 911 909
4 910 912 913 911
4 912 914 915 913
4 914 916 917 915
4 916 918 919 917
4 918 920 921 919
4 920 922 923 921
4 922 848 851 923
